HIERARCHY
ROOT pelvis
{
  OFFSET 0 100 0
  CHANNELS 6 Xposition Yposition Zposition Zrotation Xrotation Yrotation
  JOINT pelvis_right_femur
  {
    OFFSET -10.78128 -3.44521 -0.5502486
    CHANNELS 3 Zrotation Xrotation Yrotation
    JOINT right_femur_tibia
    {
      OFFSET -0.8047443 -44.0398 -0.1307829
      CHANNELS 3 Zrotation Xrotation Yrotation
      JOINT right_tibia_foot
      {
        OFFSET 3.006224 -47.83518 -5
        CHANNELS 3 Zrotation Xrotation Yrotation
        End Site
        {
          OFFSET 0 -5 15
        }
      }
    }
  }
  JOINT pelvis_left_femur
  {
    OFFSET 10.78128 -3.44521 -0.5502486
    CHANNELS 3 Zrotation Xrotation Yrotation
    JOINT left_femur_tibia
    {
      OFFSET 0.8047443 -44.0398 -0.1307829
      CHANNELS 3 Zrotation Xrotation Yrotation
      JOINT left_tibia_foot
      {
        OFFSET -4.370144 -48.10324 -4.275266
        CHANNELS 3 Zrotation Xrotation Yrotation
        End Site
        {
          OFFSET 0 -5 15
        }
      }
    }
  }
  JOINT pelvis_spine1
  {
    OFFSET 0 6.468898 -3.129235
    CHANNELS 3 Zrotation Xrotation Yrotation
    JOINT spine1
    {
      OFFSET 0 23.15396 4.99043
      CHANNELS 3 Zrotation Xrotation Yrotation
      JOINT spine2
      {
        OFFSET 0 20.79997 -5.064912
        CHANNELS 3 Zrotation Xrotation Yrotation
        JOINT neck
        {
          OFFSET 0 14.38658 9.616178
          CHANNELS 3 Zrotation Xrotation Yrotation
          End Site
          {
            OFFSET 0 20 0
          }
        }
      }
      JOINT right_manubrium
      {
        OFFSET -5.722621 16.35077 3.967754
        CHANNELS 3 Zrotation Xrotation Yrotation
        JOINT right_clavicle
        {
          OFFSET -13.16364 1.694482 -4.693211
          CHANNELS 3 Zrotation Xrotation Yrotation
          JOINT right_humerus
          {
            OFFSET -28.5034 -0.3100689 -2.792744
            CHANNELS 3 Zrotation Xrotation Yrotation
            JOINT right_radius
            {
              OFFSET -25.15693 0.02248979 -1.271978
              CHANNELS 3 Zrotation Xrotation Yrotation
              End Site
              {
                OFFSET -15 0 0
              }
            }
          }
        }
      }
      JOINT left_manubrium
      {
        OFFSET 5.722621 16.35077 3.967754
        CHANNELS 3 Zrotation Xrotation Yrotation
        JOINT left_clavicle
        {
          OFFSET 13.16364 1.694482 -4.693211
          CHANNELS 3 Zrotation Xrotation Yrotation
          JOINT left_humerus
          {
            OFFSET 29.39168 -1.063119 -2.237045
            CHANNELS 3 Zrotation Xrotation Yrotation
            JOINT left_radius
            {
              OFFSET 24.59957 -0.9528479 0.9047498
              CHANNELS 3 Zrotation Xrotation Yrotation
              End Site
              {
                OFFSET 15 -0 -0
              }
            }
          }
        }
      }
    }
  }
}
MOTION
Frames: 19
Frame Time: 0.0416666666667
0 103.5113 0 2.512712 -2.384493 0.2550114 0.7482493 -11.23819 7.435253 -0 37.63089 -0 -4.970445 -18.49953 -3.068358 -7.945949 11.42667 -24.12206 -0 3.712314 -0 8.253746 -15.22967 25.84301 -3.006875 -4.204549 5.09229 3.02862 9.706112 -8.456355 1.921341 21.02586 6.127446 2.673643 -26.89051 10.1184 5.912806 -20.33322 11.19075 86.68453 34.00976 -21.4236 -0 0 17.39636 -5.063094 7.017752 1.911897 7.129774 -20.84423 -0.5532839 -95.2373 26.15734 23.04061 0 0 -15.25215 11.25838 17.57016 1.684812
0.2687012 103.389 1.384056 1.793495 -1.342894 0.2856753 1.947086 -13.81803 8.323509 -0 37.90274 -0 -4.857255 -18.02854 -3.234099 -7.505437 11.3404 -24.23406 -0 4.140979 -0 7.081078 -16.65655 26.05424 -2.883355 -4.09555 5.049408 3.029991 9.673174 -8.451927 1.858111 21.01307 6.175732 2.72344 -26.79542 10.0226 5.933607 -20.13228 11.20579 86.65133 33.911 -21.43014 -0 0 17.17259 -5.222685 7.182312 2.037657 7.105433 -20.86601 -0.5308312 -95.21378 26.17629 22.98443 0 0 -15.22359 10.87528 17.54674 1.985035
0.5082152 102.9582 3.370924 0.7288409 -1.074597 0.3251787 3.237289 -19.34458 5.638881 -0 32.31331 -0 -7.049177 -12.88396 -2.400302 -6.672712 12.04836 -21.88745 -0 4.959878 -0 5.374859 -19.3865 24.20648 -2.390887 -3.422445 5.057617 2.948829 9.676545 -8.32483 1.73935 20.74443 6.502364 3.031144 -26.92167 9.976987 5.820869 -19.74924 11.26896 86.89398 34.7004 -21.36848 -0 0 16.10564 -5.396835 7.5031 2.536638 7.010699 -21.04748 -0.7706417 -94.32701 25.84212 22.3434 0 0 -17.09366 11.16868 16.36753 1.952305
0.7381718 102.511 5.499727 0.1052171 -0.01568647 0.3613154 4.370407 -22.79512 6.117008 -0 30.47176 -0 -6.907415 -11.63089 -2.480871 -6.325891 12.07389 -21.23575 -0 5.27137 -0 4.744146 -20.70861 23.74225 -2.13856 -3.092871 5.050946 2.93065 9.658241 -8.295342 1.663433 20.58472 6.694792 3.203433 -27.01225 9.952761 5.73582 -19.55051 11.3024 87.08335 35.03911 -21.47757 -0 0 15.53078 -5.441642 7.619226 2.759185 6.979103 -21.16909 -0.9268677 -93.87485 25.80093 22.01448 0 0 -18.26854 11.16553 15.70992 2.127548
0.9761914 101.9824 7.832488 -0.3708826 1.216371 0.4365365 5.436773 -26.34958 6.56228 -0 27.7049 -0 -6.580435 -10.50475 -2.483266 -6.15615 12.13508 -20.5219 -0 5.522954 -0 4.732428 -21.83625 23.30782 -1.893469 -2.795469 5.027929 2.924521 9.635684 -8.289828 1.575631 20.42645 6.884587 3.372946 -27.07025 9.90358 5.657919 -19.33392 11.33859 87.279 35.28364 -21.64699 -0 0 14.9648 -5.533262 7.763304 2.981498 6.959151 -21.30712 -1.075334 -93.45734 25.794 21.69483 0 0 -19.3851 11.02177 15.10002 2.422647
1.228025 101.3488 10.41625 -0.7242841 2.357535 0.5759211 6.296557 -29.47515 6.862614 -0 24.71229 -0 -6.276193 -9.394907 -2.41991 -6.070767 12.26652 -19.84898 -0 5.835297 -0 4.767016 -22.78921 22.7781 -1.694052 -2.579931 5.005773 2.922134 9.610524 -8.303721 1.497477 20.2984 7.035251 3.51236 -27.09826 9.843751 5.598201 -19.15291 11.36605 87.44956 35.40675 -21.84579 -0 0 14.53413 -5.620495 7.882066 3.139726 6.956296 -21.43618 -1.193401 -93.1761 25.86984 21.47996 0 0 -20.26543 10.76428 14.65705 2.809947
1.495723 100.6077 13.33794 -0.9909159 3.439912 0.8151035 6.973817 -32.30179 6.931239 -0 21.40172 -0 -6.077395 -8.076709 -2.223371 -6.048806 12.52778 -19.14625 -0 6.379441 -0 4.831875 -23.54926 22.08765 -1.5088 -2.40085 4.982545 2.914408 9.588666 -8.325737 1.4217 20.18877 7.161259 3.637766 -27.08616 9.762173 5.557338 -18.97613 11.38975 87.59941 35.45863 -22.04988 -0 0 14.17085 -5.743541 8.019608 3.279215 6.960681 -21.56543 -1.289627 -92.97004 25.97975 21.31974 0 0 -20.97664 10.41481 14.31802 3.270739
1.776752 99.77351 16.70536 -1.205042 4.34366 1.190269 7.425761 -34.63212 6.677783 -0 18.06159 -0 -6.098767 -6.408796 -1.876835 -6.031144 12.97839 -18.36789 -0 7.386 -0 4.694113 -24.00043 21.09897 -1.338481 -2.252832 4.962004 2.897563 9.571791 -8.35025 1.351177 20.09999 7.261222 3.748254 -27.03643 9.66279 5.535024 -18.80892 11.40886 87.72571 35.45902 -22.2443 -0 0 13.87827 -5.896044 8.17104 3.400292 6.968649 -21.68994 -1.365361 -92.83514 26.12018 21.21581 0 0 -21.52261 9.996644 14.07754 3.786231
2.064427 98.90175 20.64436 -1.430054 4.974339 1.731722 7.702743 -36.23281 6.132716 -0 15.10277 -0 -6.418146 -4.38098 -1.400176 -5.937287 13.64799 -17.47697 -0 9.216166 -0 4.089527 -23.93412 19.67063 -1.176406 -2.120572 4.942629 2.868988 9.56353 -8.372596 1.283619 20.0312 7.337781 3.846329 -26.94114 9.54103 5.532007 -18.64088 11.42574 87.827 35.4264 -22.41413 -0 0 13.63333 -6.098248 8.354143 3.523042 6.973681 -21.80937 -1.422682 -92.74574 26.26611 21.14567 0 0 -21.91579 9.521051 13.91294 4.34108
2.348262 98.10432 25.27109 -1.755001 5.193568 2.43406 7.943189 -36.69667 5.443052 -0 13.16324 -0 -7.067819 -2.242016 -0.8897953 -5.648228 14.4764 -16.43965 -0 12.38508 -0 2.654416 -23.00631 17.65902 -1.020935 -1.99489 4.923913 2.826819 9.566978 -8.38884 1.217483 19.98472 7.390437 3.931483 -26.7914 9.39246 5.54912 -18.46587 11.44228 87.89889 35.37119 -22.54443 -0 0 13.42416 -6.367774 8.580781 3.662978 6.969124 -21.92068 -1.461749 -92.68668 26.40032 21.09645 0 0 -22.15237 8.991898 13.81189 4.925715
2.619422 97.56266 30.63165 -2.281423 4.914696 3.209003 8.390635 -35.55443 4.92706 -0 12.91128 -0 -7.930491 -0.6689141 -0.5636133 -5.03884 15.16052 -15.24146 -0 17.51778 -0 0.07392016 -20.78779 15.03795 -0.8711903 -1.866157 4.905546 2.768677 9.586199 -8.394329 1.149816 19.96473 7.417705 4.002571 -26.57235 9.208822 5.587518 -18.2759 11.46142 87.93395 35.30054 -22.61617 -0 0 13.23851 -6.733352 8.867116 3.842293 6.946001 -22.01988 -1.482068 -92.64295 26.50382 21.05599 0 0 -22.21926 8.402387 13.76171 5.538358
2.884117 97.49082 36.61981 -3.007142 4.234963 3.847836 9.139257 -32.54909 4.857425 -0 14.37639 -0 -8.665533 -0.5889935 -0.6867257 -4.1196 15.00251 -13.86733 -0 25.06736 -0 -3.47998 -17.04021 12.09394 -0.7314364 -1.728799 4.890082 2.691382 9.62408 -8.382519 1.077471 19.97916 7.417217 4.057144 -26.26795 8.982156 5.646557 -18.06878 11.48603 87.92084 35.2199 -22.60609 -0 0 13.07477 -7.224065 9.220961 4.083898 6.8933 -22.09905 -1.483911 -92.61011 26.57131 21.02662 0 0 -22.09868 7.732883 13.75314 6.193203
3.172382 98.02508 42.96728 -3.620526 3.461798 4.098045 9.752608 -27.98513 5.078382 -0 16.19468 -0 -8.890073 -2.169172 -1.223401 -3.225288 13.09671 -12.30278 -0 34.83467 -0 -6.889345 -12.27951 9.517761 -0.6138924 -1.582453 4.883493 2.591783 9.68087 -8.343988 0.997117 20.03955 7.388107 4.091889 -25.86545 8.708533 5.721335 -17.85231 11.51911 87.8445 35.1393 -22.48528 -0 0 12.94233 -7.865576 9.635933 4.412643 6.797367 -22.14462 -1.470742 -92.5926 26.6139 21.02674 0 0 -21.78214 6.956201 13.77402 6.918608
3.50914 99.11344 49.36694 -3.567358 2.687399 3.855397 9.509488 -22.496 5.097654 -0 16.55677 -0 -8.615479 -4.130058 -1.654789 -2.827364 9.039524 -10.73549 -0 45.57857 -0 -8.683914 -7.939389 8.168099 -0.5413931 -1.431948 4.894203 2.468875 9.753934 -8.265684 0.9051618 20.16036 7.332214 4.101657 -25.35901 8.390944 5.801139 -17.64573 11.56473 87.68295 35.079 -22.21193 -0 0 12.85768 -8.682265 10.09087 4.86087 6.640255 -22.13492 -1.449356 -92.59459 26.64585 21.0829 0 0 -21.27355 6.054799 13.80113 7.736103
3.871777 100.525 55.57604 -2.67439 1.525924 3.254754 8.302244 -16.45143 4.702469 -0 15.32459 -0 -8.280081 -5.507513 -1.586845 -2.963549 3.310437 -9.606025 -0 55.02501 -0 -8.629453 -5.304251 8.46239 -0.5478746 -1.285874 4.93231 2.325854 9.838146 -8.130009 0.7969216 20.35719 7.254278 4.0783 -24.7517 8.03928 5.868051 -17.4787 11.62947 87.39993 35.07018 -21.71841 -0 0 12.83907 -9.706908 10.55235 5.478542 6.397984 -22.03766 -1.427889 -92.60893 26.66185 21.21918 0 0 -20.5814 5.03969 13.79114 8.632616
4.211158 101.9515 61.44851 -1.34522 -0.2191427 2.570682 6.699791 -10.15403 4.049843 -0 13.36306 -0 -8.036571 -6.691849 -1.189722 -3.21031 -3.139873 -8.932986 -0 60.8326 -0 -7.724535 -4.481473 9.906452 -0.6719732 -1.158305 5.010469 2.170943 9.922574 -7.919148 0.6674775 20.63726 7.1659 4.014953 -24.06929 7.674093 5.894202 -17.39546 11.72023 86.95103 35.15249 -20.92469 -0 0 12.90868 -10.96657 10.96705 6.322246 6.048909 -21.81748 -1.418201 -92.61747 26.64549 21.45862 0 0 -19.74949 3.959499 13.6771 9.560737
4.491326 103.0939 66.97644 -0.07052584 -2.228945 1.99917 5.334802 -4.058612 3.433907 -0 11.10743 -0 -7.553296 -7.931308 -0.9046243 -3.036232 -9.372101 -8.126645 -0 61.82029 -0 -6.748211 -4.772377 11.78359 -0.931574 -1.061744 5.143489 2.01135 9.993881 -7.627222 0.5172146 20.97952 7.086702 3.916627 -23.36864 7.324475 5.847639 -17.44878 11.83802 86.31366 35.36913 -19.78636 -0 0 13.08799 -12.46381 11.28133 7.421171 5.594316 -21.46429 -1.438823 -92.58605 26.58114 21.80905 0 0 -18.90509 2.90847 13.37811 10.45415
4.707794 103.7227 72.25732 0.7653434 -4.065638 1.540504 4.63405 1.362793 3.033345 -0 9.02408 -0 -6.865209 -9.207114 -0.9305786 -2.075228 -14.76525 -6.761794 -0 58.01194 -0 -5.808518 -5.385449 13.78574 -1.303212 -0.9961051 5.3504 1.840406 10.0479 -7.262667 0.3599709 21.33429 7.027907 3.800511 -22.71202 7.012384 5.708913 -17.68125 11.97224 85.4945 35.74107 -18.30827 -0 0 13.40651 -14.18587 11.48361 8.750142 5.068217 -21.00646 -1.501901 -92.481 26.4467 22.25975 0 0 -18.18718 2.009353 12.84578 11.24212
4.904468 103.7228 77.4258 0.9690356 -5.368178 1.083117 4.649841 5.861359 2.783309 -0 7.629958 -0 -6.288801 -10.80776 -1.070509 -0.3865017 -19.17589 -4.974151 -0 50.18502 -0 -4.904962 -5.819645 15.697 -1.73644 -0.9588616 5.648979 1.642687 10.08485 -6.841849 0.2222358 21.64848 6.981176 3.682979 -22.14678 6.750264 5.479395 -18.11077 12.1005 84.50815 36.22718 -16.52931 -0 0 13.91591 -16.08616 11.59753 10.21862 4.528073 -20.48655 -1.595553 -92.31595 26.22737 22.81027 0 0 -17.62914 1.361911 12.11585 11.86627
